# xmcd
#
# Track frame offsets: 
#        150
#        11412
#        28837
#        39765
#        58917
#        74665
#        89023
#        104576
#        128470
#        143452
#        159078
#        173699
#        186657
#        203882
#        214190
#
# Disc length: 3014 seconds
#
# Revision: 0
# Processed by: cddbd v1.5.2PL0 Copyright (c) Steve Scherf et al.
# Submitted via: ExactAudioCopy v0.99pb4
#
DISCID=d20bc40f
DTITLE=Various Artist - Country Christmas Hits
DYEAR=2004
DGENRE=Country
TTITLE0=Merle Haggard - White Christmas
TTITLE1=Tanya Tucker - Winter Wonderland
TTITLE2=Chris LeDoux - Santa Claus Is Coming to Town
TTITLE3=Kenny Rogers - Kentucky Homemade Christmas
TTITLE4=Eddie Rabbitt - Have Yourself a Merry Little Christmas
TTITLE5=Glen Campbell - The Christmas Song (Merry Christmas to You)
TTITLE6=Deana Carter - Carol Of The Bells
TTITLE7=John Berry - O Holy Night
TTITLE8=Larry Gatlin and The Gatlin Brothers - The Little Drummer Boy
TTITLE9=Suzy Bogguss - The First Noel
TTITLE10=Billy Dean - Mary Did You KNow
TTITLE11=The Oak Ridge Boys - Blue Christmas
TTITLE12=Ronnie Milsap - 'Till The Season Comes Around Again
TTITLE13=Faron Young - I'm Gonna Tell Santa Claus On You
TTITLE14=Tennessee Ernie Ford - Silent Night
EXTD=
EXTT0=
EXTT1=
EXTT2=
EXTT3=
EXTT4=
EXTT5=
EXTT6=
EXTT7=
EXTT8=
EXTT9=
EXTT10=
EXTT11=
EXTT12=
EXTT13=
EXTT14=
PLAYORDER=
